<mxfile host="app.diagrams.net" modified="2023-09-21T14:06:46.457Z" agent="Mozilla/5.0 (Windows NT 10.0; Win64; x64) AppleWebKit/537.36 (KHTML, like Gecko) Chrome/117.0.0.0 Safari/537.36 Edg/117.0.2045.31" version="21.8.0" etag="VboYoKuNKvJbpKaZLzZw" type="github">
  <diagram name="PÃ¡gina-1" id="8MpEN5nV3znHBhzvR0Ji">
    <mxGraphModel>
      <root>
        <mxCell id="0" />
        <mxCell id="1" parent="0" />
      </root>
    </mxGraphModel>
  </diagram>
</mxfile>
